# xmcd CD database file
#
# Track frame offsets:
#	150
#	19466
#	34948
#	54416
#
# Disc length: 928 seconds
#
# Revision: 0
# Processed by: cddbd v1.5.1PL0 Copyright (c) Steve Scherf et al.
# Submitted via: CDex 1.50beta10
#
DISCID=2f039e04
DTITLE=アツミサオリ - もう少し・・・ もう少し・・・
DYEAR=2004
DGENRE=Anime
TTITLE0=もう少し・・・ もう少し・・・
TTITLE1=コーヒー
TTITLE2=もう少し・・・ もう少し・・・ (Off vocal)
TTITLE3=コーヒー (Off vocal)
EXTD=YEAR: 2004
EXTT0=
EXTT1=
EXTT2=
EXTT3=
PLAYORDER=
